<?xml version="1.0" encoding="UTF-8" standalone="no"?>
<!DOCTYPE svg PUBLIC "-//W3C//DTD SVG 1.1//EN"
 "http://www.w3.org/Graphics/SVG/1.1/DTD/svg11.dtd">
<!-- Generated by graphviz version 2.47.0 (20210316.0004)
 -->
<!-- Title: dependencies Pages: 1 -->
<svg width="540pt" height="211pt"
 viewBox="0.00 0.00 540.00 211.00" xmlns="http://www.w3.org/2000/svg" xmlns:xlink="http://www.w3.org/1999/xlink">
<g id="graph0" class="graph" transform="scale(1 1) rotate(0) translate(4 207)">
<title>dependencies</title>
<polygon fill="white" stroke="transparent" points="-4,4 -4,-207 536,-207 536,4 -4,4"/>
<text text-anchor="start" x="245.01" y="-42.4" font-family="Times-12" font-weight="bold" font-size="14.00">Legend</text>
<polygon fill="#ffffb3" stroke="transparent" points="32,-10 32,-30 52,-30 52,-10 32,-10"/>
<text text-anchor="start" x="55.63" y="-15.4" font-family="Times-12" font-size="14.00"> &#160;Declarations</text>
<polygon fill="#8dd3c7" stroke="transparent" points="145,-10 145,-30 165,-30 165,-10 145,-10"/>
<text text-anchor="start" x="168.73" y="-15.4" font-family="Times-12" font-size="14.00"> &#160;Module</text>
<polygon fill="#80b1d3" stroke="transparent" points="231,-10 231,-30 251,-30 251,-10 231,-10"/>
<text text-anchor="start" x="254.78" y="-15.4" font-family="Times-12" font-size="14.00"> &#160;Bootstrap</text>
<polygon fill="#fdb462" stroke="transparent" points="328,-10 328,-30 348,-30 348,-10 328,-10"/>
<text text-anchor="start" x="351.67" y="-15.4" font-family="Times-12" font-size="14.00"> &#160;Providers</text>
<polygon fill="#fb8072" stroke="transparent" points="424,-10 424,-30 444,-30 444,-10 424,-10"/>
<text text-anchor="start" x="447.73" y="-15.4" font-family="Times-12" font-size="14.00"> &#160;Exports</text>
<g id="clust1" class="cluster">
<title>cluster_AppModule</title>
<polygon fill="none" stroke="black" stroke-dasharray="1,5" points="8,-70 8,-195 524,-195 524,-70 8,-70"/>
</g>
<g id="clust3" class="cluster">
<title>cluster_AppModule_imports</title>
<polygon fill="none" stroke="black" points="154,-78 154,-130 516,-130 516,-78 154,-78"/>
</g>
<g id="clust6" class="cluster">
<title>cluster_AppModule_providers</title>
<polygon fill="none" stroke="black" points="16,-78 16,-130 146,-130 146,-78 16,-78"/>
</g>
<!-- EventsModule -->
<g id="node1" class="node">
<title>EventsModule</title>
<polygon fill="#8dd3c7" stroke="black" points="507.65,-122 504.65,-126 483.65,-126 480.65,-122 410.35,-122 410.35,-86 507.65,-86 507.65,-122"/>
<text text-anchor="middle" x="459" y="-99.8" font-family="Times,serif" font-size="14.00">EventsModule</text>
</g>
<!-- AppModule -->
<g id="node4" class="node">
<title>AppModule</title>
<polygon fill="#8dd3c7" stroke="black" points="308.66,-187 305.66,-191 284.66,-191 281.66,-187 225.34,-187 225.34,-151 308.66,-151 308.66,-187"/>
<text text-anchor="middle" x="267" y="-164.8" font-family="Times,serif" font-size="14.00">AppModule</text>
</g>
<!-- EventsModule&#45;&gt;AppModule -->
<g id="edge1" class="edge">
<title>EventsModule&#45;&gt;AppModule</title>
<path fill="none" stroke="black" d="M459,-122.11C459,-141.34 459,-169 459,-169 459,-169 318.66,-169 318.66,-169"/>
<polygon fill="black" stroke="black" points="318.66,-165.5 308.66,-169 318.66,-172.5 318.66,-165.5"/>
</g>
<!-- ParticipantsModule -->
<g id="node2" class="node">
<title>ParticipantsModule</title>
<polygon fill="#8dd3c7" stroke="black" points="391.64,-122 388.64,-126 367.64,-126 364.64,-122 266.36,-122 266.36,-86 391.64,-86 391.64,-122"/>
<text text-anchor="middle" x="329" y="-99.8" font-family="Times,serif" font-size="14.00">ParticipantsModule</text>
</g>
<!-- ParticipantsModule&#45;&gt;AppModule -->
<g id="edge2" class="edge">
<title>ParticipantsModule&#45;&gt;AppModule</title>
<path fill="none" stroke="black" d="M287.5,-122.11C287.5,-122.11 287.5,-140.99 287.5,-140.99"/>
<polygon fill="black" stroke="black" points="284,-140.99 287.5,-150.99 291,-140.99 284,-140.99"/>
</g>
<!-- UserModule -->
<g id="node3" class="node">
<title>UserModule</title>
<polygon fill="#8dd3c7" stroke="black" points="247.98,-122 244.98,-126 223.98,-126 220.98,-122 162.02,-122 162.02,-86 247.98,-86 247.98,-122"/>
<text text-anchor="middle" x="205" y="-99.8" font-family="Times,serif" font-size="14.00">UserModule</text>
</g>
<!-- UserModule&#45;&gt;AppModule -->
<g id="edge3" class="edge">
<title>UserModule&#45;&gt;AppModule</title>
<path fill="none" stroke="black" d="M236.58,-122.11C236.58,-122.11 236.58,-140.99 236.58,-140.99"/>
<polygon fill="black" stroke="black" points="233.08,-140.99 236.58,-150.99 240.08,-140.99 233.08,-140.99"/>
</g>
<!-- AppService -->
<g id="node5" class="node">
<title>AppService</title>
<ellipse fill="#fdb462" stroke="black" cx="81" cy="-104" rx="56.74" ry="18"/>
<text text-anchor="middle" x="81" y="-99.8" font-family="Times,serif" font-size="14.00">AppService</text>
</g>
<!-- AppService&#45;&gt;AppModule -->
<g id="edge4" class="edge">
<title>AppService&#45;&gt;AppModule</title>
<path fill="none" stroke="black" d="M81,-122.11C81,-141.34 81,-169 81,-169 81,-169 215.26,-169 215.26,-169"/>
<polygon fill="black" stroke="black" points="215.26,-172.5 225.26,-169 215.26,-165.5 215.26,-172.5"/>
</g>
</g>
</svg>
