<?xml version="1.0" encoding="UTF-8" standalone="no"?>
<!DOCTYPE svg PUBLIC "-//W3C//DTD SVG 1.1//EN"
 "http://www.w3.org/Graphics/SVG/1.1/DTD/svg11.dtd">
<!-- Generated by graphviz version 2.47.0 (20210316.0004)
 -->
<!-- Title: dependencies Pages: 1 -->
<svg width="623pt" height="287pt"
 viewBox="0.00 0.00 623.00 287.00" xmlns="http://www.w3.org/2000/svg" xmlns:xlink="http://www.w3.org/1999/xlink">
<g id="graph0" class="graph" transform="scale(1 1) rotate(0) translate(4 283)">
<title>dependencies</title>
<polygon fill="white" stroke="transparent" points="-4,4 -4,-283 619,-283 619,4 -4,4"/>
<text text-anchor="start" x="286.51" y="-42.4" font-family="Times-12" font-weight="bold" font-size="14.00">Legend</text>
<polygon fill="#ffffb3" stroke="transparent" points="73.5,-10 73.5,-30 93.5,-30 93.5,-10 73.5,-10"/>
<text text-anchor="start" x="97.13" y="-15.4" font-family="Times-12" font-size="14.00"> &#160;Declarations</text>
<polygon fill="#8dd3c7" stroke="transparent" points="186.5,-10 186.5,-30 206.5,-30 206.5,-10 186.5,-10"/>
<text text-anchor="start" x="210.23" y="-15.4" font-family="Times-12" font-size="14.00"> &#160;Module</text>
<polygon fill="#80b1d3" stroke="transparent" points="272.5,-10 272.5,-30 292.5,-30 292.5,-10 272.5,-10"/>
<text text-anchor="start" x="296.28" y="-15.4" font-family="Times-12" font-size="14.00"> &#160;Bootstrap</text>
<polygon fill="#fdb462" stroke="transparent" points="369.5,-10 369.5,-30 389.5,-30 389.5,-10 369.5,-10"/>
<text text-anchor="start" x="393.17" y="-15.4" font-family="Times-12" font-size="14.00"> &#160;Providers</text>
<polygon fill="#fb8072" stroke="transparent" points="465.5,-10 465.5,-30 485.5,-30 485.5,-10 465.5,-10"/>
<text text-anchor="start" x="489.23" y="-15.4" font-family="Times-12" font-size="14.00"> &#160;Exports</text>
<g id="clust1" class="cluster">
<title>cluster_AppModule</title>
<polygon fill="none" stroke="black" stroke-dasharray="1,5" points="8,-146 8,-271 524,-271 524,-146 8,-146"/>
</g>
<g id="clust3" class="cluster">
<title>cluster_AppModule_imports</title>
<polygon fill="none" stroke="black" points="154,-154 154,-206 516,-206 516,-154 154,-154"/>
</g>
<g id="clust6" class="cluster">
<title>cluster_AppModule_providers</title>
<polygon fill="none" stroke="black" points="16,-154 16,-206 146,-206 146,-154 16,-154"/>
</g>
<g id="clust13" class="cluster">
<title>cluster_ParticipantsModule</title>
<polygon fill="none" stroke="black" stroke-dasharray="1,5" points="239,-70 239,-138 443,-138 443,-70 239,-70"/>
</g>
<g id="clust18" class="cluster">
<title>cluster_ParticipantsModule_providers</title>
<polygon fill="none" stroke="black" points="247,-78 247,-130 435,-130 435,-78 247,-78"/>
</g>
<g id="clust19" class="cluster">
<title>cluster_UserModule</title>
<polygon fill="none" stroke="black" stroke-dasharray="1,5" points="451,-70 451,-138 607,-138 607,-70 451,-70"/>
</g>
<g id="clust24" class="cluster">
<title>cluster_UserModule_providers</title>
<polygon fill="none" stroke="black" points="459,-78 459,-130 599,-130 599,-78 459,-78"/>
</g>
<g id="clust7" class="cluster">
<title>cluster_EventsModule</title>
<polygon fill="none" stroke="black" stroke-dasharray="1,5" points="67,-70 67,-138 231,-138 231,-70 67,-70"/>
</g>
<g id="clust12" class="cluster">
<title>cluster_EventsModule_providers</title>
<polygon fill="none" stroke="black" points="75,-78 75,-130 223,-130 223,-78 75,-78"/>
</g>
<!-- EventsModule -->
<g id="node1" class="node">
<title>EventsModule</title>
<polygon fill="#8dd3c7" stroke="black" points="259.65,-198 256.65,-202 235.65,-202 232.65,-198 162.35,-198 162.35,-162 259.65,-162 259.65,-198"/>
<text text-anchor="middle" x="211" y="-175.8" font-family="Times,serif" font-size="14.00">EventsModule</text>
</g>
<!-- AppModule -->
<g id="node4" class="node">
<title>AppModule</title>
<polygon fill="#8dd3c7" stroke="black" points="317.66,-263 314.66,-267 293.66,-267 290.66,-263 234.34,-263 234.34,-227 317.66,-227 317.66,-263"/>
<text text-anchor="middle" x="276" y="-240.8" font-family="Times,serif" font-size="14.00">AppModule</text>
</g>
<!-- EventsModule&#45;&gt;AppModule -->
<g id="edge1" class="edge">
<title>EventsModule&#45;&gt;AppModule</title>
<path fill="none" stroke="black" d="M247,-198.11C247,-198.11 247,-216.99 247,-216.99"/>
<polygon fill="black" stroke="black" points="243.5,-216.99 247,-226.99 250.5,-216.99 243.5,-216.99"/>
</g>
<!-- ParticipantsModule -->
<g id="node2" class="node">
<title>ParticipantsModule</title>
<polygon fill="#8dd3c7" stroke="black" points="403.64,-198 400.64,-202 379.64,-202 376.64,-198 278.36,-198 278.36,-162 403.64,-162 403.64,-198"/>
<text text-anchor="middle" x="341" y="-175.8" font-family="Times,serif" font-size="14.00">ParticipantsModule</text>
</g>
<!-- ParticipantsModule&#45;&gt;AppModule -->
<g id="edge2" class="edge">
<title>ParticipantsModule&#45;&gt;AppModule</title>
<path fill="none" stroke="black" d="M298,-198.11C298,-198.11 298,-216.99 298,-216.99"/>
<polygon fill="black" stroke="black" points="294.5,-216.99 298,-226.99 301.5,-216.99 294.5,-216.99"/>
</g>
<!-- UserModule -->
<g id="node3" class="node">
<title>UserModule</title>
<polygon fill="#8dd3c7" stroke="black" points="507.98,-198 504.98,-202 483.98,-202 480.98,-198 422.02,-198 422.02,-162 507.98,-162 507.98,-198"/>
<text text-anchor="middle" x="465" y="-175.8" font-family="Times,serif" font-size="14.00">UserModule</text>
</g>
<!-- UserModule&#45;&gt;AppModule -->
<g id="edge3" class="edge">
<title>UserModule&#45;&gt;AppModule</title>
<path fill="none" stroke="black" d="M465,-198.11C465,-217.34 465,-245 465,-245 465,-245 327.95,-245 327.95,-245"/>
<polygon fill="black" stroke="black" points="327.95,-241.5 317.95,-245 327.95,-248.5 327.95,-241.5"/>
</g>
<!-- AppService -->
<g id="node5" class="node">
<title>AppService</title>
<ellipse fill="#fdb462" stroke="black" cx="81" cy="-180" rx="56.74" ry="18"/>
<text text-anchor="middle" x="81" y="-175.8" font-family="Times,serif" font-size="14.00">AppService</text>
</g>
<!-- AppService&#45;&gt;AppModule -->
<g id="edge4" class="edge">
<title>AppService&#45;&gt;AppModule</title>
<path fill="none" stroke="black" d="M81,-198.11C81,-217.34 81,-245 81,-245 81,-245 224.17,-245 224.17,-245"/>
<polygon fill="black" stroke="black" points="224.17,-248.5 234.17,-245 224.17,-241.5 224.17,-248.5"/>
</g>
<!-- EventsService -->
<g id="node6" class="node">
<title>EventsService</title>
<ellipse fill="#fdb462" stroke="black" cx="149" cy="-104" rx="66.05" ry="18"/>
<text text-anchor="middle" x="149" y="-99.8" font-family="Times,serif" font-size="14.00">EventsService</text>
</g>
<!-- EventsService&#45;&gt;EventsModule -->
<g id="edge5" class="edge">
<title>EventsService&#45;&gt;EventsModule</title>
<path fill="none" stroke="black" d="M188.72,-118.65C188.72,-118.65 188.72,-151.9 188.72,-151.9"/>
<polygon fill="black" stroke="black" points="185.22,-151.9 188.72,-161.9 192.22,-151.9 185.22,-151.9"/>
</g>
<!-- ParticipantsService -->
<g id="node7" class="node">
<title>ParticipantsService</title>
<ellipse fill="#fdb462" stroke="black" cx="341" cy="-104" rx="85.66" ry="18"/>
<text text-anchor="middle" x="341" y="-99.8" font-family="Times,serif" font-size="14.00">ParticipantsService</text>
</g>
<!-- ParticipantsService&#45;&gt;ParticipantsModule -->
<g id="edge6" class="edge">
<title>ParticipantsService&#45;&gt;ParticipantsModule</title>
<path fill="none" stroke="black" d="M341,-122.01C341,-122.01 341,-151.85 341,-151.85"/>
<polygon fill="black" stroke="black" points="337.5,-151.85 341,-161.85 344.5,-151.85 337.5,-151.85"/>
</g>
<!-- UsersService -->
<g id="node8" class="node">
<title>UsersService</title>
<ellipse fill="#fdb462" stroke="black" cx="529" cy="-104" rx="61.95" ry="18"/>
<text text-anchor="middle" x="529" y="-99.8" font-family="Times,serif" font-size="14.00">UsersService</text>
</g>
<!-- UsersService&#45;&gt;UserModule -->
<g id="edge7" class="edge">
<title>UsersService&#45;&gt;UserModule</title>
<path fill="none" stroke="black" d="M487.51,-117.59C487.51,-117.59 487.51,-151.96 487.51,-151.96"/>
<polygon fill="black" stroke="black" points="484.01,-151.96 487.51,-161.96 491.01,-151.96 484.01,-151.96"/>
</g>
</g>
</svg>
