<?xml version="1.0" encoding="UTF-8" standalone="no"?>
<!DOCTYPE svg PUBLIC "-//W3C//DTD SVG 1.1//EN"
 "http://www.w3.org/Graphics/SVG/1.1/DTD/svg11.dtd">
<!-- Generated by graphviz version 2.47.0 (20210316.0004)
 -->
<!-- Title: dependencies Pages: 1 -->
<svg width="676pt" height="287pt"
 viewBox="0.00 0.00 676.00 287.00" xmlns="http://www.w3.org/2000/svg" xmlns:xlink="http://www.w3.org/1999/xlink">
<g id="graph0" class="graph" transform="scale(1 1) rotate(0) translate(4 283)">
<title>dependencies</title>
<polygon fill="white" stroke="transparent" points="-4,4 -4,-283 672,-283 672,4 -4,4"/>
<text text-anchor="start" x="313.01" y="-42.4" font-family="Times-12" font-weight="bold" font-size="14.00">Legend</text>
<polygon fill="#ffffb3" stroke="transparent" points="100,-10 100,-30 120,-30 120,-10 100,-10"/>
<text text-anchor="start" x="123.63" y="-15.4" font-family="Times-12" font-size="14.00"> &#160;Declarations</text>
<polygon fill="#8dd3c7" stroke="transparent" points="213,-10 213,-30 233,-30 233,-10 213,-10"/>
<text text-anchor="start" x="236.73" y="-15.4" font-family="Times-12" font-size="14.00"> &#160;Module</text>
<polygon fill="#80b1d3" stroke="transparent" points="299,-10 299,-30 319,-30 319,-10 299,-10"/>
<text text-anchor="start" x="322.78" y="-15.4" font-family="Times-12" font-size="14.00"> &#160;Bootstrap</text>
<polygon fill="#fdb462" stroke="transparent" points="396,-10 396,-30 416,-30 416,-10 396,-10"/>
<text text-anchor="start" x="419.67" y="-15.4" font-family="Times-12" font-size="14.00"> &#160;Providers</text>
<polygon fill="#fb8072" stroke="transparent" points="492,-10 492,-30 512,-30 512,-10 492,-10"/>
<text text-anchor="start" x="515.73" y="-15.4" font-family="Times-12" font-size="14.00"> &#160;Exports</text>
<g id="clust13" class="cluster">
<title>cluster_ParticipantsModule</title>
<polygon fill="none" stroke="black" stroke-dasharray="1,5" points="8,-70 8,-206 212,-206 212,-70 8,-70"/>
</g>
<g id="clust18" class="cluster">
<title>cluster_ParticipantsModule_providers</title>
<polygon fill="none" stroke="black" points="16,-78 16,-130 204,-130 204,-78 16,-78"/>
</g>
<g id="clust19" class="cluster">
<title>cluster_UserModule</title>
<polygon fill="none" stroke="black" stroke-dasharray="1,5" points="504,-70 504,-206 660,-206 660,-70 504,-70"/>
</g>
<g id="clust24" class="cluster">
<title>cluster_UserModule_providers</title>
<polygon fill="none" stroke="black" points="512,-78 512,-130 652,-130 652,-78 512,-78"/>
</g>
<g id="clust1" class="cluster">
<title>cluster_AppModule</title>
<polygon fill="none" stroke="black" stroke-dasharray="1,5" points="228,-146 228,-271 496,-271 496,-146 228,-146"/>
</g>
<g id="clust6" class="cluster">
<title>cluster_AppModule_providers</title>
<polygon fill="none" stroke="black" points="358,-154 358,-206 488,-206 488,-154 358,-154"/>
</g>
<g id="clust3" class="cluster">
<title>cluster_AppModule_imports</title>
<polygon fill="none" stroke="black" points="236,-154 236,-206 350,-206 350,-154 236,-154"/>
</g>
<g id="clust7" class="cluster">
<title>cluster_EventsModule</title>
<polygon fill="none" stroke="black" stroke-dasharray="1,5" points="220,-70 220,-138 384,-138 384,-70 220,-70"/>
</g>
<g id="clust12" class="cluster">
<title>cluster_EventsModule_providers</title>
<polygon fill="none" stroke="black" points="228,-78 228,-130 376,-130 376,-78 228,-78"/>
</g>
<!-- EventsModule -->
<g id="node1" class="node">
<title>EventsModule</title>
<polygon fill="#8dd3c7" stroke="black" points="341.65,-198 338.65,-202 317.65,-202 314.65,-198 244.35,-198 244.35,-162 341.65,-162 341.65,-198"/>
<text text-anchor="middle" x="293" y="-175.8" font-family="Times,serif" font-size="14.00">EventsModule</text>
</g>
<!-- AppModule -->
<g id="node4" class="node">
<title>AppModule</title>
<polygon fill="#8dd3c7" stroke="black" points="399.66,-263 396.66,-267 375.66,-267 372.66,-263 316.34,-263 316.34,-227 399.66,-227 399.66,-263"/>
<text text-anchor="middle" x="358" y="-240.8" font-family="Times,serif" font-size="14.00">AppModule</text>
</g>
<!-- EventsModule&#45;&gt;AppModule -->
<g id="edge1" class="edge">
<title>EventsModule&#45;&gt;AppModule</title>
<path fill="none" stroke="black" d="M329,-198.11C329,-198.11 329,-216.99 329,-216.99"/>
<polygon fill="black" stroke="black" points="325.5,-216.99 329,-226.99 332.5,-216.99 325.5,-216.99"/>
</g>
<!-- ParticipantsModule -->
<g id="node2" class="node">
<title>ParticipantsModule</title>
<polygon fill="#8dd3c7" stroke="black" points="187.64,-198 184.64,-202 163.64,-202 160.64,-198 62.36,-198 62.36,-162 187.64,-162 187.64,-198"/>
<text text-anchor="middle" x="125" y="-175.8" font-family="Times,serif" font-size="14.00">ParticipantsModule</text>
</g>
<!-- ParticipantsModule&#45;&gt;AppModule -->
<g id="edge2" class="edge">
<title>ParticipantsModule&#45;&gt;AppModule</title>
<path fill="none" stroke="black" d="M125,-198.11C125,-217.34 125,-245 125,-245 125,-245 306.08,-245 306.08,-245"/>
<polygon fill="black" stroke="black" points="306.08,-248.5 316.08,-245 306.08,-241.5 306.08,-248.5"/>
</g>
<!-- UserModule -->
<g id="node3" class="node">
<title>UserModule</title>
<polygon fill="#8dd3c7" stroke="black" points="610.98,-198 607.98,-202 586.98,-202 583.98,-198 525.02,-198 525.02,-162 610.98,-162 610.98,-198"/>
<text text-anchor="middle" x="568" y="-175.8" font-family="Times,serif" font-size="14.00">UserModule</text>
</g>
<!-- UserModule&#45;&gt;AppModule -->
<g id="edge3" class="edge">
<title>UserModule&#45;&gt;AppModule</title>
<path fill="none" stroke="black" d="M568,-198.11C568,-217.34 568,-245 568,-245 568,-245 409.74,-245 409.74,-245"/>
<polygon fill="black" stroke="black" points="409.74,-241.5 399.74,-245 409.74,-248.5 409.74,-241.5"/>
</g>
<!-- AppService -->
<g id="node5" class="node">
<title>AppService</title>
<ellipse fill="#fdb462" stroke="black" cx="423" cy="-180" rx="56.74" ry="18"/>
<text text-anchor="middle" x="423" y="-175.8" font-family="Times,serif" font-size="14.00">AppService</text>
</g>
<!-- AppService&#45;&gt;AppModule -->
<g id="edge4" class="edge">
<title>AppService&#45;&gt;AppModule</title>
<path fill="none" stroke="black" d="M383.1,-192.84C383.1,-192.84 383.1,-216.52 383.1,-216.52"/>
<polygon fill="black" stroke="black" points="379.6,-216.52 383.1,-226.52 386.6,-216.52 379.6,-216.52"/>
</g>
<!-- EventsService -->
<g id="node6" class="node">
<title>EventsService</title>
<ellipse fill="#fdb462" stroke="black" cx="302" cy="-104" rx="66.05" ry="18"/>
<text text-anchor="middle" x="302" y="-99.8" font-family="Times,serif" font-size="14.00">EventsService</text>
</g>
<!-- EventsService&#45;&gt;EventsModule -->
<g id="edge5" class="edge">
<title>EventsService&#45;&gt;EventsModule</title>
<path fill="none" stroke="black" d="M293,-122.01C293,-122.01 293,-151.85 293,-151.85"/>
<polygon fill="black" stroke="black" points="289.5,-151.85 293,-161.85 296.5,-151.85 289.5,-151.85"/>
</g>
<!-- ParticipantsService -->
<g id="node7" class="node">
<title>ParticipantsService</title>
<ellipse fill="#fdb462" stroke="black" cx="110" cy="-104" rx="85.66" ry="18"/>
<text text-anchor="middle" x="110" y="-99.8" font-family="Times,serif" font-size="14.00">ParticipantsService</text>
</g>
<!-- ParticipantsService&#45;&gt;ParticipantsModule -->
<g id="edge6" class="edge">
<title>ParticipantsService&#45;&gt;ParticipantsModule</title>
<path fill="none" stroke="black" d="M125,-122.01C125,-122.01 125,-151.85 125,-151.85"/>
<polygon fill="black" stroke="black" points="121.5,-151.85 125,-161.85 128.5,-151.85 121.5,-151.85"/>
</g>
<!-- UsersService -->
<g id="node8" class="node">
<title>UsersService</title>
<ellipse fill="#fdb462" stroke="black" cx="582" cy="-104" rx="61.95" ry="18"/>
<text text-anchor="middle" x="582" y="-99.8" font-family="Times,serif" font-size="14.00">UsersService</text>
</g>
<!-- UsersService&#45;&gt;UserModule -->
<g id="edge7" class="edge">
<title>UsersService&#45;&gt;UserModule</title>
<path fill="none" stroke="black" d="M568,-121.63C568,-121.63 568,-151.94 568,-151.94"/>
<polygon fill="black" stroke="black" points="564.5,-151.94 568,-161.94 571.5,-151.94 564.5,-151.94"/>
</g>
</g>
</svg>
